<svg xmlns="http://www.w3.org/2000/svg" width="404" height="303.414" viewBox="0 0 404 303.414">
  <g id="text-comparison-multiple-formats" transform="translate(-429 -1393.586)">
    <g id="Group_71" data-name="Group 71" transform="translate(429 1472.674)">
      <rect id="Rectangle_60" data-name="Rectangle 60" width="192" height="224" rx="17" transform="translate(0 0.326)" fill="#f9f9f9"/>
      <g id="Group_70" data-name="Group 70" transform="translate(27.512 28.57)">
        <g id="Group_69" data-name="Group 69" transform="translate(0)">
          <g id="Group_29" data-name="Group 29" transform="translate(0 32.56)">
            <rect id="Rectangle_21" data-name="Rectangle 21" width="96.484" height="4.324" transform="translate(96.484 4.324) rotate(180)" fill="#e0e0e0"/>
          </g>
          <g id="Group_68" data-name="Group 68" transform="translate(0 0)">
            <g id="Group_30" data-name="Group 30" transform="translate(98.324 163.281)">
              <rect id="Rectangle_22" data-name="Rectangle 22" width="38.73" height="4.324" transform="translate(38.73 4.324) rotate(180)" fill="#e0e0e0"/>
            </g>
            <g id="Group_31" data-name="Group 31" transform="translate(59.522 130.721)">
              <rect id="Rectangle_23" data-name="Rectangle 23" width="27.963" height="4.324" transform="translate(27.963 4.324) rotate(180)" fill="#e0e0e0"/>
            </g>
            <g id="Group_32" data-name="Group 32" transform="translate(0 130.721)">
              <rect id="Rectangle_24" data-name="Rectangle 24" width="55.166" height="4.324" transform="translate(55.166 4.324) rotate(180)" fill="#e0e0e0"/>
            </g>
            <g id="Group_33" data-name="Group 33" transform="translate(118.058 48.84)">
              <rect id="Rectangle_25" data-name="Rectangle 25" width="18.556" height="4.324" transform="translate(18.556 4.324) rotate(180)" fill="#e0e0e0"/>
            </g>
            <g id="Group_35" data-name="Group 35" transform="translate(107.825 65.24)">
              <rect id="Rectangle_27" data-name="Rectangle 27" width="28.789" height="4.324" transform="translate(28.789 4.324) rotate(180)" fill="#e0e0e0"/>
            </g>
            <g id="Group_36" data-name="Group 36" transform="translate(101.794 32.56)">
              <rect id="Rectangle_28" data-name="Rectangle 28" width="34.82" height="4.324" transform="translate(34.82 4.324) rotate(180)" fill="#e0e0e0"/>
            </g>
            <g id="Group_37" data-name="Group 37" transform="translate(63.295 163.281)">
              <rect id="Rectangle_29" data-name="Rectangle 29" width="27.494" height="4.324" transform="translate(27.494 4.324) rotate(180)" fill="#e0e0e0"/>
            </g>
            <g id="Group_38" data-name="Group 38" transform="translate(63.295 114.441)">
              <rect id="Rectangle_30" data-name="Rectangle 30" width="27.494" height="4.324" transform="translate(27.494 4.324) rotate(180)" fill="#e0e0e0"/>
            </g>
            <g id="Group_39" data-name="Group 39" transform="translate(92.789 98.161)">
              <rect id="Rectangle_31" data-name="Rectangle 31" width="11.747" height="4.324" transform="translate(11.747 4.324) rotate(180)" fill="#e0e0e0"/>
            </g>
            <g id="Group_40" data-name="Group 40" transform="translate(89.897 81.641)">
              <rect id="Rectangle_32" data-name="Rectangle 32" width="26.386" height="4.324" transform="translate(26.386 4.324) rotate(180)" fill="#e0e0e0"/>
            </g>
            <g id="Group_41" data-name="Group 41" transform="translate(0 81.641)">
              <rect id="Rectangle_33" data-name="Rectangle 33" width="85.908" height="4.324" transform="translate(85.908 4.324) rotate(180)" fill="#e0e0e0"/>
            </g>
            <g id="Group_42" data-name="Group 42" transform="translate(109.12 98.041)">
              <rect id="Rectangle_34" data-name="Rectangle 34" width="27.494" height="4.324" transform="translate(27.494 4.324) rotate(180)" fill="#e0e0e0"/>
            </g>
            <g id="Group_43" data-name="Group 43" transform="translate(120.3 81.641)">
              <rect id="Rectangle_35" data-name="Rectangle 35" width="16.314" height="4.324" transform="translate(16.314 4.324) rotate(180)" fill="#e0e0e0"/>
            </g>
            <g id="Group_44" data-name="Group 44" transform="translate(0 98.041)">
              <rect id="Rectangle_36" data-name="Rectangle 36" width="87.25" height="4.324" transform="translate(87.25 4.324) rotate(180)" fill="#e0e0e0"/>
            </g>
            <g id="Group_45" data-name="Group 45" transform="translate(109.23)">
              <rect id="Rectangle_37" data-name="Rectangle 37" width="26.923" height="4.324" transform="translate(26.923 4.324) rotate(180)" fill="#e0e0e0"/>
            </g>
            <g id="Group_46" data-name="Group 46" transform="translate(109.23 130.721)">
              <rect id="Rectangle_38" data-name="Rectangle 38" width="27.494" height="4.324" transform="translate(27.494 4.324) rotate(180)" fill="#e0e0e0"/>
            </g>
            <g id="Group_47" data-name="Group 47" transform="translate(0 48.84)">
              <rect id="Rectangle_39" data-name="Rectangle 39" width="112.41" height="4.324" transform="translate(112.41 4.324) rotate(180)" fill="#e0e0e0"/>
            </g>
            <g id="Group_48" data-name="Group 48" transform="translate(0 16.28)">
              <rect id="Rectangle_40" data-name="Rectangle 40" width="136.153" height="4.324" transform="translate(136.153 4.324) rotate(180)" fill="#e0e0e0"/>
            </g>
            <g id="Group_49" data-name="Group 49" transform="translate(97.53 114.441)">
              <rect id="Rectangle_41" data-name="Rectangle 41" width="39.194" height="4.324" transform="translate(39.194 4.324) rotate(180)" fill="#e0e0e0"/>
            </g>
            <g id="Group_51" data-name="Group 51" transform="translate(0)">
              <rect id="Rectangle_43" data-name="Rectangle 43" width="51.009" height="4.324" transform="translate(51.009 4.324) rotate(180)" fill="#e0e0e0"/>
            </g>
            <g id="Group_52" data-name="Group 52" transform="translate(0 163.281)">
              <rect id="Rectangle_44" data-name="Rectangle 44" width="55.893" height="4.324" transform="translate(55.893 4.324) rotate(180)" fill="#e0e0e0"/>
            </g>
            <g id="Group_57" data-name="Group 57" transform="translate(0 114.441)">
              <rect id="Rectangle_49" data-name="Rectangle 49" width="55.893" height="4.324" transform="translate(55.893 4.324) rotate(180)" fill="#e0e0e0"/>
            </g>
            <g id="Group_58" data-name="Group 58" transform="translate(116.995 147.001)">
              <rect id="Rectangle_50" data-name="Rectangle 50" width="20.059" height="4.324" transform="translate(20.059 4.324) rotate(180)" fill="#e0e0e0"/>
            </g>
            <g id="Group_59" data-name="Group 59" transform="translate(105.594 147.001)">
              <rect id="Rectangle_51" data-name="Rectangle 51" width="6.477" height="4.324" transform="translate(6.477 4.324) rotate(180)" fill="#e0e0e0"/>
            </g>
            <g id="Group_60" data-name="Group 60" transform="translate(94.226 147.001)">
              <rect id="Rectangle_52" data-name="Rectangle 52" width="6.609" height="4.324" transform="translate(6.609 4.324) rotate(180)" fill="#e0e0e0"/>
            </g>
            <g id="Group_62" data-name="Group 62" transform="translate(56.597)">
              <rect id="Rectangle_54" data-name="Rectangle 54" width="46.843" height="4.324" transform="translate(46.843 4.324) rotate(180)" fill="#e0e0e0"/>
            </g>
            <g id="Group_64" data-name="Group 64" transform="translate(0 147.001)">
              <rect id="Rectangle_56" data-name="Rectangle 56" width="61.577" height="4.324" transform="translate(61.577 4.324) rotate(180)" fill="#e0e0e0"/>
            </g>
            <g id="Group_65" data-name="Group 65" transform="translate(91.913 130.721)">
              <rect id="Rectangle_57" data-name="Rectangle 57" width="12.822" height="4.324" transform="translate(12.822 4.324) rotate(180)" fill="#e0e0e0"/>
            </g>
            <g id="Group_66" data-name="Group 66" transform="translate(0 65.12)">
              <rect id="Rectangle_58" data-name="Rectangle 58" width="102.179" height="4.324" transform="translate(102.179 4.324) rotate(180)" fill="#e0e0e0"/>
            </g>
            <g id="Group_67" data-name="Group 67" transform="translate(66.467 147.001)">
              <rect id="Rectangle_59" data-name="Rectangle 59" width="22.339" height="4.324" transform="translate(22.339 4.324) rotate(180)" fill="#e0e0e0"/>
            </g>
          </g>
        </g>
      </g>
    </g>
    <g id="Group_72" data-name="Group 72" transform="translate(641.395 1401)">
      <rect id="Rectangle_60-2" data-name="Rectangle 60" width="192" height="224" rx="17" transform="translate(-0.395)" fill="#f9f9f9"/>
      <g id="Group_70-2" data-name="Group 70" transform="translate(27.512 28.57)">
        <g id="Group_69-2" data-name="Group 69" transform="translate(0)">
          <g id="Group_29-2" data-name="Group 29" transform="translate(0 32.56)">
            <rect id="Rectangle_21-2" data-name="Rectangle 21" width="96.484" height="4.324" transform="translate(96.484 4.324) rotate(180)" fill="#e0e0e0"/>
          </g>
          <g id="Group_68-2" data-name="Group 68" transform="translate(0 0)">
            <g id="Group_30-2" data-name="Group 30" transform="translate(98.324 163.281)">
              <rect id="Rectangle_22-2" data-name="Rectangle 22" width="38.73" height="4.324" transform="translate(38.73 4.324) rotate(180)" fill="#e0e0e0"/>
            </g>
            <g id="Group_31-2" data-name="Group 31" transform="translate(59.522 130.721)">
              <rect id="Rectangle_23-2" data-name="Rectangle 23" width="27.963" height="4.324" transform="translate(27.963 4.324) rotate(180)" fill="#e0e0e0"/>
            </g>
            <g id="Group_32-2" data-name="Group 32" transform="translate(0 130.721)">
              <rect id="Rectangle_24-2" data-name="Rectangle 24" width="55.166" height="4.324" transform="translate(55.166 4.324) rotate(180)" fill="#e0e0e0"/>
            </g>
            <g id="Group_33-2" data-name="Group 33" transform="translate(118.058 48.84)">
              <rect id="Rectangle_25-2" data-name="Rectangle 25" width="18.556" height="4.324" transform="translate(18.556 4.324) rotate(180)" fill="#e0e0e0"/>
            </g>
            <g id="Group_35-2" data-name="Group 35" transform="translate(107.825 65.24)">
              <rect id="Rectangle_27-2" data-name="Rectangle 27" width="28.789" height="4.324" transform="translate(28.789 4.324) rotate(180)" fill="#e0e0e0"/>
            </g>
            <g id="Group_36-2" data-name="Group 36" transform="translate(101.794 32.56)">
              <rect id="Rectangle_28-2" data-name="Rectangle 28" width="34.82" height="4.324" transform="translate(34.82 4.324) rotate(180)" fill="#e0e0e0"/>
            </g>
            <g id="Group_37-2" data-name="Group 37" transform="translate(63.295 163.281)">
              <rect id="Rectangle_29-2" data-name="Rectangle 29" width="27.494" height="4.324" transform="translate(27.494 4.324) rotate(180)" fill="#e0e0e0"/>
            </g>
            <g id="Group_38-2" data-name="Group 38" transform="translate(63.295 114.441)">
              <rect id="Rectangle_30-2" data-name="Rectangle 30" width="27.494" height="4.324" transform="translate(27.494 4.324) rotate(180)" fill="#e0e0e0"/>
            </g>
            <g id="Group_39-2" data-name="Group 39" transform="translate(92.789 98.161)">
              <rect id="Rectangle_31-2" data-name="Rectangle 31" width="11.747" height="4.324" transform="translate(11.747 4.324) rotate(180)" fill="#e0e0e0"/>
            </g>
            <g id="Group_40-2" data-name="Group 40" transform="translate(89.897 81.641)">
              <rect id="Rectangle_32-2" data-name="Rectangle 32" width="26.386" height="4.324" transform="translate(26.386 4.324) rotate(180)" fill="#e0e0e0"/>
            </g>
            <g id="Group_41-2" data-name="Group 41" transform="translate(0 81.641)">
              <rect id="Rectangle_33-2" data-name="Rectangle 33" width="85.908" height="4.324" transform="translate(85.908 4.324) rotate(180)" fill="#e0e0e0"/>
            </g>
            <g id="Group_42-2" data-name="Group 42" transform="translate(109.12 98.041)">
              <rect id="Rectangle_34-2" data-name="Rectangle 34" width="27.494" height="4.324" transform="translate(27.494 4.324) rotate(180)" fill="#e0e0e0"/>
            </g>
            <g id="Group_43-2" data-name="Group 43" transform="translate(120.3 81.641)">
              <rect id="Rectangle_35-2" data-name="Rectangle 35" width="16.314" height="4.324" transform="translate(16.314 4.324) rotate(180)" fill="#e0e0e0"/>
            </g>
            <g id="Group_44-2" data-name="Group 44" transform="translate(0 98.041)">
              <rect id="Rectangle_36-2" data-name="Rectangle 36" width="87.25" height="4.324" transform="translate(87.25 4.324) rotate(180)" fill="#e0e0e0"/>
            </g>
            <g id="Group_45-2" data-name="Group 45" transform="translate(109.23)">
              <rect id="Rectangle_37-2" data-name="Rectangle 37" width="26.923" height="4.324" transform="translate(26.923 4.324) rotate(180)" fill="#e0e0e0"/>
            </g>
            <g id="Group_46-2" data-name="Group 46" transform="translate(109.23 130.721)">
              <rect id="Rectangle_38-2" data-name="Rectangle 38" width="27.494" height="4.324" transform="translate(27.494 4.324) rotate(180)" fill="#e0e0e0"/>
            </g>
            <g id="Group_47-2" data-name="Group 47" transform="translate(0 48.84)">
              <rect id="Rectangle_39-2" data-name="Rectangle 39" width="112.41" height="4.324" transform="translate(112.41 4.324) rotate(180)" fill="#e0e0e0"/>
            </g>
            <g id="Group_48-2" data-name="Group 48" transform="translate(0 16.28)">
              <rect id="Rectangle_40-2" data-name="Rectangle 40" width="136.153" height="4.324" transform="translate(136.153 4.324) rotate(180)" fill="#e0e0e0"/>
            </g>
            <g id="Group_49-2" data-name="Group 49" transform="translate(97.53 114.441)">
              <rect id="Rectangle_41-2" data-name="Rectangle 41" width="39.194" height="4.324" transform="translate(39.194 4.324) rotate(180)" fill="#e0e0e0"/>
            </g>
            <g id="Group_51-2" data-name="Group 51" transform="translate(0)">
              <rect id="Rectangle_43-2" data-name="Rectangle 43" width="51.009" height="4.324" transform="translate(51.009 4.324) rotate(180)" fill="#e0e0e0"/>
            </g>
            <g id="Group_52-2" data-name="Group 52" transform="translate(0 163.281)">
              <rect id="Rectangle_44-2" data-name="Rectangle 44" width="55.893" height="4.324" transform="translate(55.893 4.324) rotate(180)" fill="#e0e0e0"/>
            </g>
            <g id="Group_57-2" data-name="Group 57" transform="translate(0 114.441)">
              <rect id="Rectangle_49-2" data-name="Rectangle 49" width="55.893" height="4.324" transform="translate(55.893 4.324) rotate(180)" fill="#e0e0e0"/>
            </g>
            <g id="Group_58-2" data-name="Group 58" transform="translate(116.995 147.001)">
              <rect id="Rectangle_50-2" data-name="Rectangle 50" width="20.059" height="4.324" transform="translate(20.059 4.324) rotate(180)" fill="#e0e0e0"/>
            </g>
            <g id="Group_59-2" data-name="Group 59" transform="translate(105.594 147.001)">
              <rect id="Rectangle_51-2" data-name="Rectangle 51" width="6.477" height="4.324" transform="translate(6.477 4.324) rotate(180)" fill="#e0e0e0"/>
            </g>
            <g id="Group_60-2" data-name="Group 60" transform="translate(94.226 147.001)">
              <rect id="Rectangle_52-2" data-name="Rectangle 52" width="6.609" height="4.324" transform="translate(6.609 4.324) rotate(180)" fill="#e0e0e0"/>
            </g>
            <g id="Group_62-2" data-name="Group 62" transform="translate(56.597)">
              <rect id="Rectangle_54-2" data-name="Rectangle 54" width="46.843" height="4.324" transform="translate(46.843 4.324) rotate(180)" fill="#e0e0e0"/>
            </g>
            <g id="Group_64-2" data-name="Group 64" transform="translate(0 147.001)">
              <rect id="Rectangle_56-2" data-name="Rectangle 56" width="61.577" height="4.324" transform="translate(61.577 4.324) rotate(180)" fill="#e0e0e0"/>
            </g>
            <g id="Group_65-2" data-name="Group 65" transform="translate(91.913 130.721)">
              <rect id="Rectangle_57-2" data-name="Rectangle 57" width="12.822" height="4.324" transform="translate(12.822 4.324) rotate(180)" fill="#e0e0e0"/>
            </g>
            <g id="Group_66-2" data-name="Group 66" transform="translate(0 65.12)">
              <rect id="Rectangle_58-2" data-name="Rectangle 58" width="102.179" height="4.324" transform="translate(102.179 4.324) rotate(180)" fill="#e0e0e0"/>
            </g>
            <g id="Group_67-2" data-name="Group 67" transform="translate(66.467 147.001)">
              <rect id="Rectangle_59-2" data-name="Rectangle 59" width="22.339" height="4.324" transform="translate(22.339 4.324) rotate(180)" fill="#e0e0e0"/>
            </g>
          </g>
        </g>
      </g>
    </g>
    <path id="XMLID_5_" d="M67.146,76.778,53.087,62.72l0,0q-.12-.119-.25-.226c-.048-.039-.1-.074-.148-.11s-.075-.058-.114-.084c-.065-.044-.133-.082-.2-.121-.027-.015-.053-.033-.08-.047-.064-.034-.131-.064-.2-.094-.034-.016-.067-.033-.1-.047-.057-.024-.115-.043-.173-.063s-.092-.034-.14-.049-.094-.024-.141-.036-.12-.032-.182-.044c-.036-.007-.072-.011-.108-.017-.072-.012-.145-.024-.218-.031-.029,0-.059,0-.088,0-.079-.006-.158-.011-.239-.011-.043,0-.087,0-.13.006-.065,0-.13,0-.2.009-.111.011-.223.027-.333.049h0L50,61.808c-.093.02-.186.042-.278.07-.036.011-.07.025-.1.037-.069.024-.139.047-.207.075-.047.019-.091.042-.137.063s-.108.049-.161.077-.107.062-.159.094-.083.048-.123.075c-.063.042-.123.088-.183.135-.027.021-.056.04-.083.062-.077.063-.15.13-.22.2-.009.009-.019.016-.028.025l0,0-.01.01L34.256,76.779a3.375,3.375,0,0,0,4.773,4.773l8.738-8.738A24.743,24.743,0,0,1,13.912,93.557q-.347-.139-.689-.289a24.807,24.807,0,0,1-7.478-5.061,3.375,3.375,0,1,0-4.735,4.81,31.5,31.5,0,0,0,22.107,9.069h0A31.5,31.5,0,0,0,54.469,73.647l7.9,7.9a3.375,3.375,0,1,0,4.772-4.773Z" transform="translate(636.866 1581.268)" fill="#007bff"/>
    <path id="XMLID_5_2" data-name="XMLID_5_" d="M67.146,87.04,53.087,101.1l0,0q-.12.119-.25.226c-.048.039-.1.074-.148.11s-.075.058-.114.084c-.065.044-.133.082-.2.121-.027.015-.053.033-.08.047-.064.034-.131.064-.2.094-.034.016-.067.033-.1.047-.057.024-.115.043-.173.063s-.092.034-.14.049-.094.024-.141.036-.12.032-.182.044c-.036.007-.072.011-.108.017-.072.012-.145.024-.218.031-.029,0-.059,0-.088,0-.079.006-.158.011-.239.011-.043,0-.087,0-.13-.006-.065,0-.13,0-.2-.009-.111-.011-.223-.027-.333-.049h0L50,102.01c-.093-.02-.186-.042-.278-.07-.036-.011-.07-.025-.1-.037-.069-.024-.139-.047-.207-.075-.047-.019-.091-.042-.137-.063s-.108-.049-.161-.077-.107-.062-.159-.094-.083-.048-.123-.075c-.063-.042-.123-.088-.183-.135-.027-.021-.056-.04-.083-.062-.077-.063-.15-.13-.22-.2-.009-.009-.019-.016-.028-.025l0,0-.01-.01L34.256,87.039a3.375,3.375,0,1,1,4.773-4.773L47.767,91A24.743,24.743,0,0,0,13.912,70.261q-.347.139-.689.289a24.807,24.807,0,0,0-7.478,5.061A3.375,3.375,0,1,1,1.009,70.8a31.5,31.5,0,0,1,22.107-9.069h0A31.5,31.5,0,0,1,54.469,90.171l7.9-7.9a3.375,3.375,0,1,1,4.772,4.773Z" transform="translate(509.964 1421.726) rotate(-60)" fill="#007bff"/>
  </g>
</svg>
