<?xml version="1.0" encoding="UTF-8"?>
<!DOCTYPE svg PUBLIC "-//W3C//DTD SVG 1.1//EN" "http://www.w3.org/Graphics/SVG/1.1/DTD/svg11.dtd">
<!-- Creator: CorelDRAW X8 -->
<svg xmlns="http://www.w3.org/2000/svg" xml:space="preserve" width="94.0915mm" height="36.8657mm" version="1.1" style="shape-rendering:geometricPrecision; text-rendering:geometricPrecision; image-rendering:optimizeQuality; fill-rule:evenodd; clip-rule:evenodd"
viewBox="0 0 9395 3681"
 xmlns:xlink="http://www.w3.org/1999/xlink">
 <defs>
  <style type="text/css">
   <![CDATA[
    .fil0 {fill:#EF453A}
    .fil2 {fill:#2B4276}
    .fil1 {fill:#2B4276;fill-rule:nonzero}
   ]]>
  </style>
 </defs>
 <g id="Camada_x0020_1">
  <metadata id="CorelCorpID_0Corel-Layer"/>
  <path class="fil0" d="M9330 2755c-1612,155 -3193,238 -4748,252 -1556,15 -3084,-39 -4582,-157 1562,-15 3122,-31 4677,-47 1554,-16 3104,-32 4653,-48z"/>
  <path class="fil0" d="M9395 2421c-1612,155 -3194,238 -4749,252 -1556,14 -3084,-39 -4582,-157 1561,-16 3121,-32 4677,-48 1554,-15 3105,-31 4654,-47z"/>
  <path class="fil1" d="M2015 1484c177,-105 353,-211 530,-317 -18,-23 -39,-41 -63,-52 -24,-11 -52,-16 -84,-16 -85,0 -162,26 -229,75 -67,51 -116,118 -144,203 -5,17 -9,35 -10,53 -2,18 -3,36 0,54zm830 612c-140,82 -278,144 -416,184 -136,40 -277,60 -422,61 -274,2 -470,-76 -585,-236 -115,-160 -129,-368 -43,-623 86,-253 241,-459 464,-619 223,-159 469,-238 741,-240 169,-1 305,40 409,121 106,82 177,203 213,366 -354,213 -707,427 -1061,641 23,9 47,16 70,20 23,5 46,7 71,7 58,-1 121,-13 191,-38 69,-26 152,-65 244,-118 41,158 81,315 124,474z"/>
  <path class="fil1" d="M3623 2250c-224,23 -448,46 -672,70 125,-379 250,-758 376,-1135 125,-376 251,-752 375,-1126 222,-19 442,-39 663,-59 -123,373 -247,746 -370,1120 -125,376 -248,752 -372,1130z"/>
  <path class="fil1" d="M4749 1469c175,-106 351,-211 527,-317 -19,-23 -40,-41 -64,-52 -24,-11 -52,-16 -84,-16 -86,1 -162,25 -228,75 -66,51 -113,118 -141,203 -5,17 -9,35 -11,53 -1,17 -1,36 1,54zm833 610c-138,83 -276,145 -411,185 -136,39 -277,60 -422,60 -272,2 -468,-77 -585,-236 -115,-159 -131,-367 -47,-622 83,-252 234,-457 456,-617 219,-158 466,-239 736,-240 168,-1 305,39 410,120 105,81 176,204 213,366 -350,213 -701,426 -1051,640 24,9 48,16 71,21 23,4 46,6 70,6 57,-1 120,-13 190,-38 70,-26 151,-64 242,-118 42,158 84,315 128,473z"/>
  <path class="fil1" d="M7096 1252c-32,-27 -64,-47 -94,-59 -31,-13 -64,-19 -99,-19 -86,1 -164,25 -232,75 -69,48 -116,113 -141,193 -26,81 -21,145 15,193 36,47 95,71 181,71 46,-1 89,-8 131,-21 43,-13 84,-33 124,-60 82,152 163,304 247,457 -115,76 -233,134 -358,173 -124,38 -250,58 -379,59 -272,2 -469,-77 -587,-237 -118,-159 -136,-366 -53,-621 81,-251 233,-457 454,-616 220,-158 465,-239 734,-240 119,-1 229,14 329,43 100,29 188,74 267,134 -180,158 -359,316 -539,475z"/>
  <path class="fil1" d="M8421 1189c-75,0 -143,23 -206,70 -62,46 -105,106 -128,179 -23,73 -18,131 16,176 32,44 87,67 163,66 76,0 145,-23 207,-69 60,-44 101,-104 124,-176 23,-74 19,-133 -14,-179 -33,-45 -87,-68 -162,-67zm-994 259c80,-252 230,-457 450,-616 220,-159 463,-239 731,-240 270,-1 465,75 585,233 119,156 138,361 60,612 -79,255 -228,462 -447,623 -219,161 -464,242 -736,244 -271,2 -467,-77 -587,-236 -118,-159 -137,-366 -56,-620z"/>
  <polygon class="fil2" points="375,11 1957,9 1742,637 1344,637 799,2282 63,2354 638,635 180,635 "/>
  <polygon class="fil1" points="363,3549 455,3148 556,3138 464,3540 "/>
  <path class="fil1" d="M520 3549l68 -299 82 -9 -10 44c14,-16 29,-27 45,-35 16,-7 32,-11 50,-11 31,0 52,9 62,27 11,19 11,48 2,87l-42 184 -91 11 43 -187c4,-15 4,-26 0,-34 -4,-7 -12,-11 -23,-11 -13,0 -25,4 -35,14 -10,9 -17,22 -21,40l-39 169 -91 10z"/>
  <path class="fil1" d="M853 3327l38 -77 29 0 14 -61 96 -36 -22 97 55 0 -18 77 -54 0 -21 88c-4,18 -3,31 4,38 7,7 21,10 44,10 1,0 4,0 7,0 3,0 6,0 8,0l-46 88 -8 0c-43,0 -73,-9 -90,-29 -17,-19 -20,-49 -11,-89l24 -106 -49 0z"/>
  <path class="fil1" d="M1328 3503c-26,16 -51,29 -76,37 -25,8 -48,12 -72,12 -45,0 -80,-14 -103,-44 -23,-30 -29,-67 -19,-113 11,-47 35,-84 72,-114 36,-29 79,-44 127,-44 29,0 55,8 75,22 20,14 36,36 48,66l-223 125c7,6 13,11 21,14 7,3 16,5 26,5 12,0 25,-3 40,-9 16,-5 33,-14 52,-25l32 68zm-56 -180c-4,-3 -9,-6 -14,-7 -6,-2 -11,-2 -17,-2 -21,0 -40,6 -57,20 -17,14 -28,32 -33,53l-1 4 122 -68z"/>
  <polygon class="fil1" points="1357,3548 1451,3138 1541,3130 1447,3540 "/>
  <path class="fil1" d="M1574 3179l74 -60 57 47 -75 60 -56 -47zm-65 370l69 -302 91 -10 -69 303 -91 9z"/>
  <path class="fil1" d="M1732 3461c-19,-12 -32,-27 -39,-43 -6,-17 -7,-36 -2,-58 8,-36 28,-66 59,-89 31,-24 65,-36 104,-36 7,0 19,1 34,3 16,2 28,3 36,3 12,0 26,-1 42,-3 16,-2 35,-6 57,-11l-33 66c-5,1 -10,2 -15,3 -5,0 -11,1 -18,1 7,9 10,18 12,28 2,10 1,21 -2,33 -4,17 -11,33 -23,48 -11,14 -26,27 -45,39 16,11 27,23 32,37 5,13 6,30 1,50 -8,35 -29,64 -62,86 -34,22 -73,33 -119,33 -26,0 -48,-5 -68,-14 -20,-9 -37,-24 -51,-42l63 -55c11,12 22,21 34,27 11,5 24,8 38,8 19,0 36,-5 51,-14 15,-10 24,-22 27,-37 3,-14 0,-26 -11,-36 -10,-10 -25,-15 -43,-15 -12,0 -23,1 -36,4 -12,2 -26,6 -41,10l18 -26zm43 -102c-3,16 -1,29 6,40 8,10 20,15 35,15 16,0 30,-5 42,-15 12,-11 20,-24 24,-40 4,-16 2,-30 -5,-40 -8,-10 -20,-15 -36,-15 -16,0 -30,5 -42,15 -12,10 -20,24 -24,40z"/>
  <path class="fil1" d="M2271 3503c-26,16 -51,29 -76,37 -25,8 -49,12 -72,12 -45,0 -80,-14 -103,-44 -23,-30 -29,-67 -19,-113 11,-47 35,-84 72,-114 36,-29 79,-44 127,-44 29,0 54,8 75,22 20,14 36,36 48,66l-223 125c6,6 13,11 21,14 7,3 16,5 26,5 11,0 25,-3 40,-9 16,-5 33,-14 52,-25l32 68zm-56 -180c-4,-3 -9,-6 -14,-7 -6,-2 -11,-2 -17,-2 -21,0 -40,6 -57,20 -17,14 -28,32 -33,53l-1 4 122 -68zm-99 -117l79 -105 68 0 31 105 -40 0 -35 -62 -64 62 -39 0z"/>
  <path class="fil1" d="M2295 3549l68 -299 82 -9 -10 44c15,-16 29,-27 45,-35 16,-7 32,-11 50,-11 31,0 52,9 62,27 11,19 11,48 2,87l-42 184 -91 11 43 -187c4,-15 4,-26 0,-34 -4,-7 -12,-11 -22,-11 -14,0 -26,4 -36,14 -10,9 -17,22 -21,40l-39 169 -91 10z"/>
  <path class="fil1" d="M2866 3511c-19,14 -38,24 -58,31 -21,7 -42,10 -64,10 -46,0 -80,-14 -103,-44 -23,-30 -29,-67 -19,-113 11,-47 34,-84 71,-114 37,-29 80,-44 128,-44 20,0 39,3 54,9 16,6 29,15 40,28l-58 61c-6,-8 -13,-13 -22,-17 -9,-3 -18,-5 -28,-5 -23,0 -43,7 -60,23 -18,15 -29,34 -35,58 -5,22 -2,40 8,54 11,13 26,20 48,20 6,0 12,0 18,-2 7,-1 13,-3 20,-5 3,-2 6,-3 10,-5 4,-2 9,-5 16,-10l34 65z"/>
  <path class="fil1" d="M2949 3179l74 -60 57 47 -75 60 -56 -47zm-65 370l69 -302 91 -10 -69 303 -91 9z"/>
  <path class="fil1" d="M3194 3548l8 -32c-13,11 -27,19 -40,24 -14,6 -28,8 -43,8 -28,0 -50,-9 -65,-29 -14,-19 -19,-43 -12,-72 7,-30 22,-55 46,-74 24,-19 52,-29 82,-29 14,0 26,2 36,6 10,4 19,11 25,19l7 -28c2,-10 0,-19 -6,-25 -6,-5 -16,-8 -31,-8 -12,0 -26,1 -41,4 -15,2 -32,6 -52,12l32 -75c17,-5 32,-8 48,-10 15,-3 30,-4 44,-4 37,0 64,8 79,24 15,17 19,41 11,74l-47 204 -81 11zm-15 -146c-13,0 -24,4 -34,11 -9,8 -15,17 -18,29 -3,12 -1,21 5,28 7,7 16,10 30,10 13,0 24,-3 34,-10 10,-7 16,-16 18,-28 3,-11 1,-21 -5,-28 -6,-7 -16,-11 -30,-12z"/>
  <path class="fil1" d="M3778 3503c-26,16 -52,29 -76,37 -25,8 -49,12 -72,12 -46,0 -80,-14 -103,-44 -23,-30 -29,-67 -19,-113 11,-47 35,-84 71,-114 37,-29 79,-44 127,-44 30,0 55,8 75,22 21,14 37,36 49,66l-223 125c6,6 13,11 21,14 7,3 16,5 25,5 12,0 26,-3 41,-9 15,-5 33,-14 52,-25l32 68zm-56 -180c-4,-3 -10,-6 -15,-7 -5,-2 -10,-2 -16,-2 -21,0 -40,6 -57,20 -17,14 -28,32 -33,53l-1 4 122 -68z"/>
  <path class="fil1" d="M3802 3548l69 -299 82 -10 -9 39c12,-14 25,-24 39,-31 14,-7 29,-10 45,-10 15,0 27,3 36,9 9,6 16,14 20,26 13,-12 27,-21 42,-26 14,-6 30,-9 47,-9 32,0 54,9 68,28 13,19 16,46 8,81l-44 193 -91 9 44 -191c3,-14 3,-24 0,-31 -4,-6 -11,-10 -22,-10 -12,0 -22,4 -30,13 -8,8 -14,20 -18,36l-40 174 -90 9 44 -191c3,-14 3,-24 0,-31 -4,-6 -11,-10 -21,-10 -12,0 -22,5 -31,13 -9,9 -15,21 -18,36l-40 175 -90 8z"/>
  <polygon class="fil1" points="4653,3234 4583,3540 4482,3549 4554,3234 4450,3234 4497,3142 4769,3142 4747,3234 "/>
  <path class="fil1" d="M4948 3503c-26,16 -51,29 -76,37 -25,8 -48,12 -71,12 -46,0 -81,-14 -104,-44 -23,-30 -29,-67 -18,-113 10,-47 34,-84 71,-114 36,-29 79,-44 127,-44 30,0 55,8 75,22 20,14 36,36 48,66l-223 125c7,6 13,11 21,14 7,3 16,5 26,5 12,0 25,-3 40,-9 16,-5 33,-14 52,-25l32 68zm-55 -180c-5,-3 -10,-6 -15,-7 -6,-2 -11,-2 -17,-2 -21,0 -40,6 -57,20 -17,14 -28,32 -33,53l-1 4 123 -68z"/>
  <polygon class="fil1" points="4977,3548 5071,3138 5161,3130 5067,3540 "/>
  <path class="fil1" d="M5415 3503c-27,16 -52,29 -77,37 -24,8 -48,12 -71,12 -46,0 -80,-14 -104,-44 -22,-30 -29,-67 -18,-113 10,-47 34,-84 71,-114 37,-29 79,-44 127,-44 30,0 55,8 75,22 20,14 36,36 48,66l-222 125c6,6 13,11 20,14 8,3 16,5 26,5 12,0 25,-3 41,-9 15,-5 32,-14 51,-25l33 68zm-56 -180c-5,-3 -10,-6 -15,-7 -5,-2 -11,-2 -17,-2 -21,0 -40,6 -57,20 -17,14 -28,32 -33,53l-1 4 123 -68z"/>
  <path class="fil1" d="M5702 3511c-18,14 -37,24 -58,31 -20,7 -41,10 -63,10 -46,0 -81,-14 -104,-44 -23,-30 -29,-67 -18,-113 10,-47 34,-84 71,-114 37,-29 79,-44 127,-44 21,0 39,3 55,9 15,6 29,15 39,28l-57 61c-7,-8 -14,-13 -22,-17 -9,-3 -19,-5 -29,-5 -22,0 -42,7 -60,23 -17,15 -29,34 -34,58 -5,22 -3,40 8,54 10,13 26,20 47,20 6,0 12,0 19,-2 7,-1 13,-3 19,-5 3,-2 7,-3 11,-5 3,-2 8,-5 15,-10l34 65z"/>
  <path class="fil1" d="M5826 3394c-5,21 -2,38 9,51 10,13 26,20 47,20 22,0 41,-7 57,-20 16,-13 27,-30 32,-51 4,-21 2,-38 -9,-51 -10,-13 -26,-20 -47,-20 -21,0 -40,7 -57,20 -17,14 -27,31 -32,51zm-90 1c10,-46 34,-84 71,-113 38,-30 80,-45 127,-45 48,0 83,15 107,45 24,29 30,67 20,113 -11,46 -35,83 -72,113 -37,30 -79,44 -127,44 -47,0 -83,-14 -106,-44 -24,-30 -31,-67 -20,-113z"/>
  <path class="fil1" d="M6064 3548l69 -299 82 -10 -9 39c12,-14 25,-24 39,-31 14,-7 29,-10 45,-10 14,0 26,3 36,9 9,6 16,14 20,26 13,-12 27,-21 42,-26 14,-6 30,-9 47,-9 32,0 54,9 68,28 13,19 16,46 8,81l-44 193 -91 9 44 -191c3,-14 3,-24 -1,-31 -3,-6 -10,-10 -21,-10 -12,0 -22,4 -30,13 -9,8 -14,20 -18,36l-40 174 -90 9 44 -191c3,-14 3,-24 0,-31 -4,-6 -11,-10 -21,-10 -12,0 -22,5 -31,13 -9,9 -15,21 -18,36l-40 175 -90 8z"/>
  <path class="fil1" d="M6840 3241l-68 300 -82 11 10 -46c-14,16 -30,27 -45,35 -15,7 -32,11 -50,11 -28,0 -48,-8 -60,-25 -13,-17 -16,-40 -9,-69l47 -204 91 -11 -43 187c-4,15 -3,26 0,34 4,7 12,11 23,11 14,0 26,-5 36,-14 10,-9 17,-23 21,-39l39 -170 90 -11z"/>
  <path class="fil1" d="M6822 3549l69 -299 82 -9 -10 44c14,-16 29,-27 45,-35 15,-7 32,-11 50,-11 31,0 51,9 62,27 10,19 11,48 2,87l-42 184 -91 11 43 -187c3,-15 3,-26 -1,-34 -4,-7 -11,-11 -22,-11 -14,0 -26,4 -36,14 -10,9 -17,22 -21,40l-39 169 -91 10z"/>
  <path class="fil1" d="M7199 3179l75 -60 57 47 -75 60 -57 -47zm-65 370l69 -302 91 -10 -69 303 -91 9z"/>
  <path class="fil1" d="M7546 3511c-19,14 -38,24 -58,31 -21,7 -42,10 -64,10 -46,0 -80,-14 -103,-44 -23,-30 -30,-67 -19,-113 11,-47 34,-84 71,-114 37,-29 80,-44 128,-44 20,0 39,3 54,9 16,6 29,15 40,28l-58 61c-6,-8 -14,-13 -22,-17 -9,-3 -18,-5 -29,-5 -22,0 -42,7 -59,23 -18,15 -29,34 -35,58 -5,22 -2,40 8,54 11,13 26,20 48,20 6,0 12,0 18,-2 7,-1 13,-3 20,-5 3,-2 6,-3 10,-5 4,-2 9,-5 16,-10l34 65z"/>
  <path class="fil1" d="M7722 3548l7 -32c-13,11 -26,19 -40,24 -13,6 -27,8 -42,8 -29,0 -50,-9 -65,-29 -15,-19 -19,-43 -12,-72 6,-30 22,-55 46,-74 24,-19 51,-29 82,-29 14,0 26,2 36,6 10,4 18,11 25,19l6 -28c3,-10 1,-19 -6,-25 -6,-5 -16,-8 -30,-8 -13,0 -26,1 -41,4 -15,2 -33,6 -52,12l32 -75c16,-5 32,-8 47,-10 15,-3 30,-4 44,-4 38,0 64,8 79,24 15,17 19,41 12,74l-47 204 -81 11zm-15 -146c-13,0 -25,4 -34,11 -10,8 -16,17 -19,29 -2,12 0,21 6,28 6,7 16,10 29,10 14,0 25,-3 35,-10 9,-7 15,-16 18,-28 3,-11 1,-21 -5,-28 -7,-7 -17,-11 -30,-12z"/>
  <path class="fil1" d="M8116 3511c-18,14 -37,24 -58,31 -20,7 -41,10 -63,10 -46,0 -81,-14 -104,-44 -23,-30 -29,-67 -18,-113 10,-47 34,-84 71,-114 37,-29 79,-44 127,-44 21,0 39,3 55,9 15,6 29,15 39,28l-57 61c-7,-8 -14,-13 -23,-17 -8,-3 -18,-5 -28,-5 -22,0 -42,7 -60,23 -17,15 -29,34 -34,58 -5,22 -3,40 8,54 10,13 26,20 47,20 6,0 12,0 19,-2 7,-1 13,-3 19,-5 3,-2 7,-3 11,-5 3,-2 8,-5 15,-10l34 65zm-222 158l8 -36c14,4 27,7 39,9 12,2 22,3 31,3 9,0 17,-2 22,-5 6,-4 9,-9 11,-17 2,-6 0,-11 -4,-14 -5,-3 -13,-5 -25,-5 -5,0 -8,0 -10,0 -3,0 -5,1 -7,1l14 -61 29 0 -6 26 4 0c22,0 37,4 47,14 9,9 11,22 7,41 -4,19 -14,33 -28,42 -15,9 -35,14 -60,14 -9,0 -20,-1 -33,-3 -12,-2 -26,-5 -39,-9z"/>
  <path class="fil1" d="M8240 3394c-5,21 -2,38 9,51 10,13 26,20 47,20 22,0 41,-7 57,-20 16,-13 27,-30 31,-51 5,-21 3,-38 -8,-51 -10,-13 -26,-20 -47,-20 -21,0 -40,7 -57,20 -17,14 -27,31 -32,51zm-90 1c10,-46 34,-84 71,-113 38,-30 80,-45 127,-45 48,0 83,15 107,45 24,29 30,67 20,113 -11,46 -35,83 -72,113 -37,30 -79,44 -127,44 -47,0 -83,-14 -106,-44 -24,-30 -31,-67 -20,-113zm316 -280c-10,23 -21,41 -33,52 -13,11 -26,17 -41,17 -4,0 -7,0 -10,-1 -4,-1 -7,-2 -11,-3l-23 -7c-5,-1 -9,-2 -11,-2 -3,-1 -5,-1 -7,-1 -6,0 -12,2 -16,5 -5,4 -10,10 -14,18l-31 0c10,-23 20,-40 32,-51 12,-11 26,-16 41,-16 5,0 9,0 13,0 3,1 7,2 11,3l24 8c3,1 6,2 8,2 3,1 5,1 7,1 6,0 12,-2 17,-7 5,-4 9,-10 13,-18l31 0z"/>
  <path class="fil1" d="M8768 3503c-26,16 -51,29 -76,37 -25,8 -48,12 -71,12 -46,0 -81,-14 -104,-44 -23,-30 -29,-67 -18,-113 10,-47 34,-84 71,-114 36,-29 79,-44 127,-44 30,0 55,8 75,22 20,14 36,36 48,66l-222 125c6,6 12,11 20,14 7,3 16,5 26,5 12,0 25,-3 40,-9 16,-5 33,-14 52,-25l32 68zm-55 -180c-5,-3 -10,-6 -15,-7 -6,-2 -11,-2 -17,-2 -21,0 -40,6 -57,20 -17,14 -28,32 -33,53l-1 4 123 -68z"/>
  <path class="fil1" d="M8784 3510l59 -59c11,10 21,17 30,22 10,5 20,7 30,7 12,0 22,-2 30,-7 9,-4 14,-10 15,-17 3,-10 -8,-19 -30,-24 -5,-2 -9,-3 -12,-4 -31,-8 -52,-19 -63,-33 -11,-14 -14,-33 -8,-58 7,-29 23,-52 48,-71 26,-18 55,-27 89,-27 18,0 35,3 50,10 15,6 29,16 41,30l-62 50c-7,-6 -14,-10 -21,-13 -7,-3 -14,-5 -22,-5 -10,0 -18,2 -25,5 -6,4 -10,8 -11,14 -2,11 10,20 38,28 11,2 19,4 25,6 21,7 36,17 45,31 8,14 10,31 5,52 -7,31 -24,57 -51,76 -27,20 -59,29 -96,29 -20,0 -39,-3 -56,-10 -18,-7 -34,-18 -48,-32z"/>
 </g>
</svg>
